<mxfile host="app.diagrams.net" agent="Mozilla/5.0 (X11; Linux x86_64; rv:141.0) Gecko/20100101 Firefox/141.0" version="28.1.0">
  <diagram name="Page-1" id="Mt_HUXR5O6kLTx0qWId0">
    <mxGraphModel dx="1310" dy="1626" grid="1" gridSize="10" guides="1" tooltips="1" connect="1" arrows="1" fold="1" page="1" pageScale="1" pageWidth="827" pageHeight="1169" math="0" shadow="0">
      <root>
        <mxCell id="0" />
        <mxCell id="1" parent="0" />
        <mxCell id="j2amn9IV4w0OwR7YDSab-1" value="&lt;font data-font-src=&quot;https://fonts.googleapis.com/css?family=Inter&quot;&gt;Febrero&lt;/font&gt;" style="rounded=0;whiteSpace=wrap;html=1;fontFamily=Inter;fontSource=https%3A%2F%2Ffonts.googleapis.com%2Fcss%3Ffamily%3DInter;fontSize=20;" vertex="1" parent="1">
          <mxGeometry width="400" height="40" as="geometry" />
        </mxCell>
        <mxCell id="j2amn9IV4w0OwR7YDSab-2" value="&lt;p&gt;&lt;font data-font-src=&quot;https://fonts.googleapis.com/css?family=Inter&quot; face=&quot;Inter&quot; style=&quot;font-size: 20px;&quot;&gt;Marzo&lt;/font&gt;&lt;/p&gt;" style="rounded=0;whiteSpace=wrap;html=1;" vertex="1" parent="1">
          <mxGeometry x="400" width="400" height="40" as="geometry" />
        </mxCell>
        <mxCell id="j2amn9IV4w0OwR7YDSab-3" value="&lt;p&gt;&lt;font style=&quot;font-size: 20px;&quot; data-font-src=&quot;https://fonts.googleapis.com/css?family=Inter&quot; face=&quot;Inter&quot;&gt;Abril&lt;/font&gt;&lt;/p&gt;" style="rounded=0;whiteSpace=wrap;html=1;" vertex="1" parent="1">
          <mxGeometry x="800" width="400" height="40" as="geometry" />
        </mxCell>
      </root>
    </mxGraphModel>
  </diagram>
</mxfile>
